<?xml version="1.0" encoding="UTF-8" standalone="no"?>
<!-- Created with Inkscape (http://www.inkscape.org/) -->

<svg
   viewBox="0 0 100 100"
   version="1.1"
   id="svg1"
   xml:space="preserve"
   inkscape:version="1.4.2 (ebf0e940, 2025-05-08)"
   sodipodi:docname="sovik-logo.svg"
   xmlns:inkscape="http://www.inkscape.org/namespaces/inkscape"
   xmlns:sodipodi="http://sodipodi.sourceforge.net/DTD/sodipodi-0.dtd"
   xmlns="http://www.w3.org/2000/svg"
   xmlns:svg="http://www.w3.org/2000/svg"><sodipodi:namedview
     id="namedview1"
     pagecolor="#ffffff"
     bordercolor="#000000"
     borderopacity="0.25"
     inkscape:showpageshadow="2"
     inkscape:pageopacity="0.0"
     inkscape:pagecheckerboard="0"
     inkscape:deskcolor="#d1d1d1"
     inkscape:document-units="px"
     inkscape:zoom="3.6314741"
     inkscape:cx="33.732858"
     inkscape:cy="39.791004"
     inkscape:window-width="1424"
     inkscape:window-height="704"
     inkscape:window-x="45"
     inkscape:window-y="38"
     inkscape:window-maximized="0"
     inkscape:current-layer="g6" /><defs
     id="defs1" /><g
     inkscape:label="Layer 1"
     inkscape:groupmode="layer"
     id="layer1"
     transform="translate(-43.550692,-45.789518)"><g
       id="g5"
       transform="translate(191.86338,4.0064278)"><g
         id="g6"
         transform="matrix(3.8505205,0,0,3.9294996,422.36527,-122.8179)"
         style="stroke-width:0.257082"><g
           id="g7"><rect
             style="fill:none;stroke:#000000;stroke-width:0.1285525;stroke-dasharray:none;stroke-dashoffset:0"
             id="rect1"
             width="18.141184"
             height="18.141184"
             x="-142.79582"
             y="-64.795433"
             transform="matrix(0.71376457,-0.7003857,0.71376457,0.7003857,0,0)" /><rect
             style="fill:none;stroke:#000000;stroke-width:0.1285525;stroke-dasharray:none;stroke-dashoffset:0;stroke-opacity:1"
             id="rect2"
             width="15.634626"
             height="15.634626"
             x="-141.51564"
             y="-63.569435"
             transform="matrix(0.71376312,-0.70038719,0.71376308,0.70038723,0,0)" /><g
             id="g4"
             style="stroke-width:1.06554"
             transform="matrix(0.24356204,0,0,0.23899669,-112.08238,31.904705)"><path
               d="m -92.196842,99.522748 q 2.500023,-2.500024 5.094387,-5.283068 2.594363,-2.783045 4.905705,-5.424579 2.358513,-2.688704 4.150982,-5.000046 1.83964,-2.311342 2.783045,-3.82079 0.754724,-1.132086 0.754724,-1.88681 0,-0.141511 -0.04717,-0.283022 -0.04717,-0.14151 -0.04717,-0.235851 0,-0.188681 0.09434,-0.188681 0.141511,0 0.235851,0.141511 0.235851,0.235851 0.566043,0.707554 0.330192,0.471702 0.330192,0.754724 0,0.330191 -0.141511,0.707553 -0.141511,0.377362 -0.613213,1.037746 -0.471703,0.660383 -1.320767,1.698129 -0.849065,0.990575 -2.311342,2.594363 -1.462278,1.603789 -3.584939,3.915131 -2.122661,2.264172 -5.094387,5.424579 -0.707554,0.707553 -1.650959,1.698128 -0.943405,0.943405 -1.88681,1.981151 -0.896234,1.037745 -1.698129,2.02832 -0.754723,0.94341 -1.084915,1.60379 -0.330192,0.61321 -0.943405,0.61321 -0.896235,0.0472 -1.367937,0.28302 -0.424533,0.28303 -0.707554,0.28303 -0.188681,0 -0.188681,-0.18869 0,-0.14151 0.188681,-0.51887 0.188681,-0.37736 0.377362,-0.89623 0.613213,-1.839643 1.132086,-4.056645 0.518873,-2.264171 0.849064,-4.339662 0.377362,-2.075491 0.566043,-3.67928 0.235852,-1.650958 0.235852,-2.264172 0,-0.849064 -0.09434,-1.650958 -0.09434,-0.849065 -0.471702,-1.462278 -0.330192,-0.660384 -1.037746,-1.037745 -0.660383,-0.424533 -1.83964,-0.424533 -0.943405,0 -2.122661,0.377362 -1.132086,0.330192 -1.792469,0.990575 -0.377368,0.377362 -0.518878,0.141511 -0.14151,-0.235851 0.18869,-0.471702 1.367933,-0.943405 3.254743,-1.556618 1.88681,-0.613214 3.537769,-0.613214 1.745299,0 2.358512,0.990576 0.660384,0.943404 0.660384,2.452852 0,1.603789 -0.330192,3.67928 -0.283022,2.075491 -0.707554,4.198152 -0.377362,2.075491 -0.707553,3.91513 -0.283022,1.79247 -0.283022,2.924556 0,0.235851 0.09434,0.235851 0.14151,0 0.235851,-0.09434 z"
               id="text3"
               style="font-style:italic;font-size:18.8681px;font-family:Zapfino;-inkscape-font-specification:'Zapfino Italic';stroke-width:7.45789"
               aria-label="V" /><path
               d="m -93.551732,89.029181 q -0.226923,0.567308 -0.567307,1.475 -0.283654,0.907692 -0.453846,1.53173 -0.226923,0.113462 -0.397116,-0.170192 0.170193,-0.340384 0.170193,-0.850961 0,-1.021154 -1.021154,-1.928846 -0.964423,-0.907692 -3.120191,-0.907692 -2.269227,0 -3.687497,1.361538 -1.41827,1.304808 -1.41827,3.517307 0,1.701922 0.79423,3.176922 0.79423,1.475 1.75865,2.723076 0.7375,0.964423 1.19135,1.645187 0.510575,0.62404 0.794229,1.19135 0.283654,0.51058 0.397115,1.02115 0.113462,0.45385 0.113462,1.13462 0,1.19135 -0.567308,2.32596 -0.510578,1.13462 -1.418268,2.09904 -0.85096,0.96442 -1.92885,1.75865 -1.02115,0.7375 -2.0423,1.19135 -2.55289,1.13461 -5.67308,1.13461 -1.30481,0 -2.60961,-0.22692 -1.24808,-0.22692 -2.32596,-0.7375 -0.28366,-0.17019 -0.51058,-0.28365 -0.22692,-0.1702 -0.28365,-0.34039 0.22692,-0.96442 0.51057,-2.15577 0.34039,-1.24807 0.56731,-2.0423 0,-0.11347 0.17019,-0.11347 0.17019,0 0.17019,0.28366 -0.17019,0.51057 -0.17019,1.02115 0,1.58846 1.30481,2.83654 1.30481,1.19134 4.02788,1.19134 1.02116,0 2.04231,-0.17019 1.07788,-0.22692 1.92885,-0.62404 1.75865,-0.79423 2.94999,-2.2125 1.24808,-1.47499 1.24808,-3.46057 0,-0.96442 -0.45384,-1.92885 -0.45385,-1.02115 -1.75866,-2.66634 -1.13461,-1.475002 -1.75865,-2.609617 -0.56731,-1.134615 -0.56731,-2.609614 0,-1.475 0.62404,-2.949999 0.68077,-1.475 1.64519,-2.609615 0.34039,-0.397115 0.90769,-0.907692 0.62404,-0.567308 1.41827,-1.021154 0.85096,-0.453846 1.928848,-0.79423 1.134615,-0.340385 2.496153,-0.340385 0.907692,0 1.758653,0.283654 0.850961,0.226923 1.53173,0.964423 0.283654,0.397115 0.283654,0.79423 z"
               id="text4"
               style="font-style:italic;font-size:22.6923px;font-family:Zapfino;-inkscape-font-specification:'Zapfino Italic';stroke-width:8.96931"
               aria-label="S" /></g></g></g></g></g></svg>
